# xmcd
#
# Track frame offsets:
#	150
#	6471
#	26812
#	49184
#	66926
#	88983
#	110295
#	128889
#	144110
#	154138
#	177631
#	191834
#	205880
#	219517
#	238450
#	258628
#	277587
#	291696
#	311901
#
# Disc length: 4332 seconds
#
# Revision: 0
# Processed by: cddbd v1.5.2PL0 Copyright (c) Steve Scherf et al.
# Submitted via: EasyCDDAExtractor 16.0.9.1
#
DISCID=3410ea13
DTITLE=HST - Masy Ludu. Na Jezykach (Reedycja)
DYEAR=2012
DGENRE=Hip-Hop
TTITLE0=Intro
TTITLE1=Na Jezykach ft. Gutek
TTITLE2=Kilka Minut Z Nia ft. Siloe
TTITLE3=Miasto Patrzy
TTITLE4=Falstart
TTITLE5=Memento Mori
TTITLE6=Proste ft. Kalecik
TTITLE7=Masy Ludu
TTITLE8=Skit W Kit
TTITLE9=Alkoholizm ft. Fokus
TTITLE10=Mam Ten Zly Dzien ft. Pih
TTITLE11=Pieronsko Kurwica
TTITLE12=Na Majku 2 ft. Risku
TTITLE13=Suki
TTITLE14=Bedzie Nas Wiecej ft. Risku
TTITLE15=Slyszysz Hast (Jajonasz Remix)
TTITLE16=Outro
TTITLE17=Kilka Minut Z Nia (Igor Remix)
TTITLE18=Zyje sie raz
EXTD=
EXTT0=
EXTT1=
EXTT2=
EXTT3=
EXTT4=
EXTT5=
EXTT6=
EXTT7=
EXTT8=
EXTT9=
EXTT10=
EXTT11=
EXTT12=
EXTT13=
EXTT14=
EXTT15=
EXTT16=
EXTT17=
EXTT18=
PLAYORDER=
